<svg xmlns="http://www.w3.org/2000/svg" width="20.632" height="24.324" viewBox="0 0 20.632 24.324"><defs><style>.a{fill:#2cc7f8;}</style></defs><g transform="translate(-35.479)"><g transform="translate(35.479 0)"><g transform="translate(0 0)"><path class="a" d="M56.061,21.31l-3.725-6.451a8.865,8.865,0,1,0-13.069,0L35.542,21.31a.507.507,0,0,0-.042.4.43.43,0,0,0,.562.25l2.976-1.186.458,3.184a.41.41,0,0,0,.208.312.445.445,0,0,0,.6-.166l3.767-6.514a9.077,9.077,0,0,0,1.686.166,8.9,8.9,0,0,0,1.686-.166L51.212,24.1a.465.465,0,0,0,.6.166.41.41,0,0,0,.208-.312l.458-3.184,2.976,1.186a.43.43,0,0,0,.562-.25A.321.321,0,0,0,56.061,21.31ZM40.224,22.559l-.375-2.476a.461.461,0,0,0-.5-.375.3.3,0,0,0-.125.042l-2.31.916,3-5.182a8.786,8.786,0,0,0,3.309,1.852Zm5.577-5.7a7.976,7.976,0,0,1-5.64-13.61A7.824,7.824,0,0,1,45.8.874a7.976,7.976,0,0,1,5.64,13.61A7.824,7.824,0,0,1,45.8,16.857Zm6.576,2.893a.3.3,0,0,0-.125-.042.441.441,0,0,0-.5.375l-.375,2.476-3-5.223a8.786,8.786,0,0,0,3.309-1.852l3,5.182Z" transform="translate(-35.479 0)"/></g></g><g transform="translate(41.583 4.537)"><g transform="translate(0)"><path class="a" d="M161.1,89.989a.891.891,0,0,0-.375-.312.935.935,0,0,0-.479-.083h-1.727l-.541-1.706a1.111,1.111,0,0,0-.479-.583,1.059,1.059,0,0,0-.916,0,.963.963,0,0,0-.479.583l-.541,1.706h-1.727a.935.935,0,0,0-.479.083.891.891,0,0,0-.375.312.935.935,0,0,0-.166.728.977.977,0,0,0,.4.645l1.457,1.041-.562,1.706c0,.021,0,.042-.021.042a.924.924,0,0,0-.021.416.838.838,0,0,0,.187.416.977.977,0,0,0,.645.4.929.929,0,0,0,.728-.187l1.457-1.061,1.457,1.061a1.045,1.045,0,0,0,.728.187.977.977,0,0,0,.645-.4,1.073,1.073,0,0,0,.187-.416.94.94,0,0,0-.021-.416c0-.021,0-.042-.021-.042L159.5,92.4l1.457-1.041a.977.977,0,0,0,.4-.645A1.457,1.457,0,0,0,161.1,89.989Zm-.728.666-.021.021L158.669,91.9a.435.435,0,0,0-.166.479l.645,1.977v.083c0,.021,0,.042-.021.042a.108.108,0,0,1-.083.042.125.125,0,0,1-.083-.021l-1.706-1.249a.418.418,0,0,0-.271-.083.458.458,0,0,0-.271.083L155.007,94.5a.125.125,0,0,1-.083.021.158.158,0,0,1-.083-.042.064.064,0,0,1-.021-.042v-.083l.645-1.977a.4.4,0,0,0-.166-.479l-1.6-1.228-.021-.021c-.021-.021-.042-.042-.042-.062a.125.125,0,0,1,.021-.083.02.02,0,0,1,.021-.021c.021-.021.021-.021.042-.021s.042-.021.062-.021h2.1a.443.443,0,0,0,.416-.312l.645-2a.066.066,0,0,1,.062-.062.073.073,0,0,0,.042-.021c.021,0,.042,0,.042.021l.062.062.645,2a.473.473,0,0,0,.416.312h2.1a.076.076,0,0,1,.062.021c.021,0,.021.021.042.021a.02.02,0,0,0,.021.021c.021.021.021.042.021.083A.287.287,0,0,0,160.376,90.655Z" transform="translate(-152.806 -87.2)"/></g></g><g transform="translate(38.893 1.956)"><g transform="translate(0)"><path class="a" d="M112.895,39.619a6.933,6.933,0,1,0,2.019,4.89A6.887,6.887,0,0,0,112.895,39.619Zm-.6,9.157a6.041,6.041,0,1,1-8.553-8.532A5.973,5.973,0,0,1,108,38.453a6.063,6.063,0,0,1,4.287,10.322Z" transform="translate(-101.095 -37.6)"/></g></g></g></svg>
