<svg xmlns="http://www.w3.org/2000/svg" width="21.625" height="21.625" viewBox="0 0 21.625 21.625"><defs><style>.a{fill:#2cc7f8;}</style></defs><g transform="translate(0 0)"><path class="a" d="M331.965,135.514l-1.189-2.408-1.189,2.408-2.658.386,1.923,1.875-.454,2.647,2.377-1.25,2.377,1.25-.454-2.647,1.923-1.875Zm-.494,2.592-.694-.365-.694.365.133-.773-.562-.548.776-.113.347-.7.347.7.776.113-.562.548Zm0,0" transform="translate(-313.122 -127.483)"/><path class="a" d="M6.3,135.514l-1.189-2.408L3.92,135.513l-2.732.387,2,1.881-.453,2.64,2.377-1.25,2.377,1.25-.454-2.647L8.954,135.9ZM5.8,138.106l-.694-.365-.694.365.134-.78-.574-.541.787-.112.348-.7.347.7.776.113-.562.548Zm0,0" transform="translate(-1.138 -127.483)"/><path class="a" d="M213.534,362H211v1.267h1.267v1.267H211V365.8h3.8v-1.267h-1.267Zm0,0" transform="translate(-202.088 -346.71)"/><path class="a" d="M21.625,310.869V305.8H15.247V302H6.378v2.534H0v6.335Zm-1.267-3.8V309.6H15.247v-2.534Zm-12.713-3.8H13.98V309.6H7.645ZM1.267,309.6v-3.8H6.378v3.8Zm0,0" transform="translate(0 -289.244)"/><path class="a" d="M128.478,7.4c.268-.318.542-.644.769-.978a3.1,3.1,0,0,0,2.239-.98,3.278,3.278,0,0,0,.918-2.272v-1.9H129.87V0h-6.335V1.267H121v1.9a3.277,3.277,0,0,0,.918,2.272,3.1,3.1,0,0,0,2.239.98c.227.333.5.659.769.978.562.668,1.143,1.358,1.143,1.934v.89H124.8v1.267h3.8V10.221h-1.267v-.89c0-.576.581-1.266,1.143-1.934Zm2.659-4.863v.634a2.01,2.01,0,0,1-1.311,1.883,3.185,3.185,0,0,0,.044-.531V2.535Zm-8.869.634V2.535h1.267V4.52a3.185,3.185,0,0,0,.044.531,2.01,2.01,0,0,1-1.311-1.883ZM125.9,6.582a6.964,6.964,0,0,1-.9-1.223,1.88,1.88,0,0,1-.195-.839V1.267h3.8V4.52a1.88,1.88,0,0,1-.195.839,6.962,6.962,0,0,1-.9,1.223,12.99,12.99,0,0,0-.806,1.027A12.985,12.985,0,0,0,125.9,6.582Zm0,0" transform="translate(-115.89)"/></g></svg>