<svg xmlns="http://www.w3.org/2000/svg" width="21.998" height="21.999" viewBox="0 0 21.998 21.999"><defs><style>.a{opacity:1;}.b{fill:#2cc7f8;}</style></defs><g class="a" transform="translate(-0.007)"><g transform="translate(2.929 19.421)"><path class="b" d="M68.736,452.127a.429.429,0,1,0,.126.3A.433.433,0,0,0,68.736,452.127Z" transform="translate(-68.003 -452.001)"/></g><g transform="translate(19.447 7.734)"><path class="b" d="M453.187,180.134a.428.428,0,1,0,.126.3A.432.432,0,0,0,453.187,180.134Z" transform="translate(-452.454 -180.008)"/></g><g transform="translate(0.007)"><g transform="translate(0)"><path class="b" d="M21.88.126a.43.43,0,0,0-.3-.126H11.006a.43.43,0,0,0-.43.43V1.659L6.5,2.75a.43.43,0,0,0-.3.526l2.111,7.878L6.485,12.98a1.288,1.288,0,0,0-1.064-.563H1.3A1.29,1.29,0,0,0,.007,13.707v7A1.29,1.29,0,0,0,1.3,22H5.421a1.291,1.291,0,0,0,1.251-.979l.511.446A2.165,2.165,0,0,0,8.606,22h12.97a.43.43,0,0,0,.43-.43V.43A.43.43,0,0,0,21.88.126ZM5.85,20.71a.43.43,0,0,1-.43.43H1.3a.43.43,0,0,1-.43-.43v-7a.43.43,0,0,1,.43-.43H2.929v4.95a.43.43,0,1,0,.859,0v-4.95H5.421a.43.43,0,0,1,.43.43v7ZM7.141,3.469l3.435-.921V4.141l-.288.077a.43.43,0,0,0-.3.526,1.158,1.158,0,0,1-.818,1.417.43.43,0,0,0-.3.527l1.675,6.2H9.676l-.444-1.739A.429.429,0,0,0,9.159,11Zm3.435,2.642V9.737l-.784-2.9A2.013,2.013,0,0,0,10.576,6.111ZM16.749,21.14H8.605a1.306,1.306,0,0,1-.858-.322l-1.038-.9V13.971l1.876-1.876.34,1.331a.43.43,0,0,0,.416.323h8.447a.6.6,0,1,1,0,1.2H13.461a.43.43,0,1,0,0,.859h5.673a.6.6,0,1,1,0,1.2H13.461a.43.43,0,0,0,0,.859h4.754a.6.6,0,0,1,0,1.2H13.461a.43.43,0,1,0,0,.859h3.288a.6.6,0,1,1,0,1.2Zm4.4,0H18.08a1.456,1.456,0,0,0,0-1.2h.135a1.46,1.46,0,0,0,1.306-2.115,1.46,1.46,0,0,0,.786-2.279V10.1a.43.43,0,1,0-.859,0v4.889a1.461,1.461,0,0,0-.313-.034H19.12a1.46,1.46,0,0,0-1.331-2.062H17.1a2.056,2.056,0,1,0-1.616,0H13.134V4.72a2.023,2.023,0,0,0,1.54-1.54h3.232a2.023,2.023,0,0,0,1.54,1.54V6.056a.43.43,0,1,0,.859,0V4.337a.43.43,0,0,0-.43-.43A1.158,1.158,0,0,1,18.72,2.75a.43.43,0,0,0-.43-.43h-4a.43.43,0,0,0-.43.43A1.158,1.158,0,0,1,12.7,3.907a.43.43,0,0,0-.43.43V12.89h-.839V.86h9.71ZM16.291,12.2a1.2,1.2,0,1,1,1.2-1.2A1.2,1.2,0,0,1,16.291,12.2Z" transform="translate(-0.007 0)"/></g></g></g></svg>
