<svg xmlns="http://www.w3.org/2000/svg" width="22" height="22.003" viewBox="0 0 22 22.003"><defs><style>.a{opacity:1;}.b{fill:#2cc7f8;}</style></defs><g class="a" transform="translate(-0.033)"><g transform="translate(0.033)"><path class="b" d="M238.358,213.571v-1.464a.365.365,0,0,0-.165-.306h0l-4.83-3.172a.366.366,0,0,0-.4,0l-4.83,3.172a.366.366,0,0,0-.165.306h0v1.464a.366.366,0,0,0,.293.359v3.555a.366.366,0,0,0-.293.359v1.464a.366.366,0,0,0,.366.366h9.66a.366.366,0,0,0,.366-.366v-1.464a.366.366,0,0,0-.293-.359V213.93A.366.366,0,0,0,238.358,213.571Zm-1.756,3.906v-3.54h.732v3.54Zm-2.342,0v-3.54h1.61v3.54Zm-1.464,0v-3.54h.732v3.54Zm-2.342,0v-3.54h1.61v3.54Zm-1.464,0v-3.54h.732v3.54Zm8.636-4.272H228.7v-.732h8.928Zm-4.464-3.832,3.606,2.368h-7.212Zm4.464,9.567H228.7v-.732h8.928Z" transform="translate(-216.358 -197.67)"/><path class="b" d="M9.327,9.006A2.125,2.125,0,0,0,11.45,6.884a.366.366,0,0,0-.366-.366h-.512V1.83A1.832,1.832,0,0,0,8.742,0h-6A1.832,1.832,0,0,0,.911,1.83V6.518H.4a.366.366,0,0,0-.366.366A2.125,2.125,0,0,0,2.155,9.006ZM.814,7.25H4.095a.366.366,0,0,0,0-.732H1.643V1.83a1.1,1.1,0,0,1,1.1-1.1h6a1.1,1.1,0,0,1,1.1,1.1V6.518H7.388a.366.366,0,0,0,0,.732h3.281A1.393,1.393,0,0,1,9.327,8.274H2.155A1.393,1.393,0,0,1,.814,7.25Z" transform="translate(-0.033)"/><path class="b" d="M124.078,43.334a.448.448,0,0,1-.482-.4.366.366,0,0,0-.732,0,1.149,1.149,0,0,0,.853,1.084.365.365,0,0,0,.722,0,1.149,1.149,0,0,0,.853-1.084,1.178,1.178,0,0,0-1.214-1.135.41.41,0,1,1,.482-.4.366.366,0,0,0,.732,0,1.149,1.149,0,0,0-.853-1.084.365.365,0,0,0-.722,0,1.149,1.149,0,0,0-.853,1.084,1.178,1.178,0,0,0,1.214,1.135.41.41,0,1,1,0,.807Z" transform="translate(-117.469 -38.536)"/><path class="b" d="M146.395,178.13a.365.365,0,1,0,.259.107A.368.368,0,0,0,146.395,178.13Z" transform="translate(-139.717 -170.429)"/><g transform="translate(1.032 1.368)"><path class="b" d="M338.155,40.877a.366.366,0,0,0-.448.259l-.032.119a8.57,8.57,0,0,0-4.259-3.835.366.366,0,0,0-.282.676,7.844,7.844,0,0,1,3.96,3.627l-.276-.074a.366.366,0,0,0-.189.707l1.053.282a.366.366,0,0,0,.448-.259l.282-1.054A.366.366,0,0,0,338.155,40.877Z" transform="translate(-318.494 -37.392)"/><path class="b" d="M33.541,335.456a7.844,7.844,0,0,1-3.96-3.627l.276.074a.366.366,0,0,0,.189-.707l-1.053-.282a.366.366,0,0,0-.448.259l-.282,1.053a.366.366,0,1,0,.707.189L29,332.3a8.57,8.57,0,0,0,4.259,3.835.366.366,0,0,0,.281-.676Z" transform="translate(-28.25 -316.894)"/></g></g></g></svg>
